<svg xmlns="http://www.w3.org/2000/svg" width="67" height="34" viewBox="0 0 67 34">
  <g id="port_logo" transform="translate(-12 -4)">
    <g id="그룹_5" data-name="그룹 5" transform="translate(17.041 7.361)">
      <path id="패스_3" data-name="패스 3" d="M2005.01,33.623s21.1.751,20.471-13.385S2018.85,7.353,2017.6,7.6s-4.879,2.627-3.878,12.635,4.879,13.511,11.759,13.385,8.427-1.281,8.427-1.281,3.2-3.062,3.335-6.491.592-6.449-4.145-6.375-4.312,6.125-4.312,6.375.79,7.87,9.876,7.772,8-1.042,8-1.042" transform="translate(-2005.01 -7.464)" fill="none" stroke="#fff" stroke-linecap="round" stroke-width="2"/>
      <path id="패스_4" data-name="패스 4" d="M2038.405,35.4s4.219-4.126,4.219-6.727.169-5.857-4.516-5.857-4.386,5.606-4.386,5.857-.735,6.727,8.9,6.727H2054" transform="translate(-1996.994 -9.918)" fill="none" stroke="#fff" stroke-linecap="round" stroke-width="2"/>
    </g>
    <rect id="사각형_4" data-name="사각형 4" width="67" height="34" transform="translate(12 4)" fill="none"/>
  </g>
</svg>
