<svg xmlns="http://www.w3.org/2000/svg" width="16" height="13" viewBox="0 0 16 13">
  <g id="arrow_next_ge" transform="translate(-306 -489)">
    <path id="다각형_1" data-name="다각형 1" d="M5.767.789a1,1,0,0,1,1.466,0L11.44,5.32A1,1,0,0,1,10.707,7H2.293A1,1,0,0,1,1.56,5.32Z" transform="translate(322 489) rotate(90)" fill="#2c5429"/>
    <path id="다각형_2" data-name="다각형 2" d="M5.767.789a1,1,0,0,1,1.466,0L11.44,5.32A1,1,0,0,1,10.707,7H2.293A1,1,0,0,1,1.56,5.32Z" transform="translate(313 489) rotate(90)" fill="#2c5429"/>
  </g>
</svg>
