<svg xmlns="http://www.w3.org/2000/svg" width="16" height="13" viewBox="0 0 16 13">
  <g id="arrow_prev_gr" transform="translate(-48 -489)">
    <path id="다각형_10" data-name="다각형 10" d="M5.767.789a1,1,0,0,1,1.466,0L11.44,5.32A1,1,0,0,1,10.707,7H2.293A1,1,0,0,1,1.56,5.32Z" transform="translate(48 502) rotate(-90)" fill="#999"/>
    <path id="다각형_9" data-name="다각형 9" d="M5.767.789a1,1,0,0,1,1.466,0L11.44,5.32A1,1,0,0,1,10.707,7H2.293A1,1,0,0,1,1.56,5.32Z" transform="translate(57 502) rotate(-90)" fill="#999"/>
  </g>
</svg>
