<svg xmlns="http://www.w3.org/2000/svg" width="16" height="13" viewBox="0 0 16 13">
  <g id="arrow_prev_ge" transform="translate(-2038 109)">
    <path id="다각형_17" data-name="다각형 17" d="M5.767.789a1,1,0,0,1,1.466,0L11.44,5.32A1,1,0,0,1,10.707,7H2.293A1,1,0,0,1,1.56,5.32Z" transform="translate(2038 -96) rotate(-90)" fill="#2c5429"/>
    <path id="다각형_18" data-name="다각형 18" d="M5.767.789a1,1,0,0,1,1.466,0L11.44,5.32A1,1,0,0,1,10.707,7H2.293A1,1,0,0,1,1.56,5.32Z" transform="translate(2047 -96) rotate(-90)" fill="#2c5429"/>
  </g>
</svg>
