<svg xmlns="http://www.w3.org/2000/svg" width="16" height="13" viewBox="0 0 16 13">
  <g id="arrow_next_gr" transform="translate(-2306 109)">
    <path id="다각형_11" data-name="다각형 11" d="M5.767.789a1,1,0,0,1,1.466,0L11.44,5.32A1,1,0,0,1,10.707,7H2.293A1,1,0,0,1,1.56,5.32Z" transform="translate(2322 -109) rotate(90)" fill="#999"/>
    <path id="다각형_12" data-name="다각형 12" d="M5.767.789a1,1,0,0,1,1.466,0L11.44,5.32A1,1,0,0,1,10.707,7H2.293A1,1,0,0,1,1.56,5.32Z" transform="translate(2313 -109) rotate(90)" fill="#999"/>
  </g>
</svg>
