<svg xmlns="http://www.w3.org/2000/svg" width="10" height="12" viewBox="0 0 10 12">
  <g id="calendar_before" transform="translate(10 12) rotate(180)">
    <path id="패스_15" data-name="패스 15" d="M5.8,5.421,1.216.224a.622.622,0,0,0-.955,0L.2.3a.836.836,0,0,0,0,1.08L4.278,6,.2,10.623A.838.838,0,0,0,.2,11.7l.064.071a.619.619,0,0,0,.955,0L5.8,6.579A.814.814,0,0,0,6,6,.816.816,0,0,0,5.8,5.421Z" transform="translate(4)" fill="#fff"/>
    <path id="패스_16" data-name="패스 16" d="M5.8,5.421,1.216.224a.622.622,0,0,0-.955,0L.2.3a.836.836,0,0,0,0,1.08L4.278,6,.2,10.623A.838.838,0,0,0,.2,11.7l.064.071a.619.619,0,0,0,.955,0L5.8,6.579A.814.814,0,0,0,6,6,.816.816,0,0,0,5.8,5.421Z" fill="#fff"/>
  </g>
</svg>
