<svg xmlns="http://www.w3.org/2000/svg" width="28" height="28" viewBox="0 0 28 28">
  <g id="calendar_unactive" transform="translate(-286 -411)">
    <g id="사각형_13" data-name="사각형 13" transform="translate(286 411)" fill="none" stroke="#999" stroke-width="1">
      <rect width="28" height="28" rx="14" stroke="none"/>
      <rect x="0.5" y="0.5" width="27" height="27" rx="13.5" fill="none"/>
    </g>
    <g id="그룹_15" data-name="그룹 15" transform="translate(-2238.342 -2125.942)">
      <g id="그룹_5" data-name="그룹 5" transform="translate(2531.342 2543.494)">
        <g id="그룹_4" data-name="그룹 4" transform="translate(0 0)">
          <g id="그룹_3" data-name="그룹 3">
            <path id="패스_3" data-name="패스 3" d="M2544.4,2547.9h-1.366v1.169h1.19v13.11h-11.771v-13.11h1.564V2547.9h-1.739a.964.964,0,0,0-.939.986v13.479a.963.963,0,0,0,.939.984H2544.4a.964.964,0,0,0,.939-.984v-13.479A.965.965,0,0,0,2544.4,2547.9Z" transform="translate(-2531.342 -2547.9)" fill="#999"/>
            <rect id="사각형_19" data-name="사각형 19" width="3.924" height="1.002" transform="translate(5.298 0)" fill="#999"/>
          </g>
        </g>
      </g>
      <g id="그룹_6" data-name="그룹 6" transform="translate(2534.43 2548.376)">
        <path id="패스_4" data-name="패스 4" d="M2557.5,2585.077a.789.789,0,1,1-.789-.789A.789.789,0,0,1,2557.5,2585.077Z" transform="translate(-2555.923 -2584.288)" fill="#999"/>
      </g>
      <g id="그룹_7" data-name="그룹 7" transform="translate(2537.743 2548.376)">
        <path id="패스_5" data-name="패스 5" d="M2583.879,2585.077a.789.789,0,1,1-.789-.789A.789.789,0,0,1,2583.879,2585.077Z" transform="translate(-2582.3 -2584.288)" fill="#999"/>
      </g>
      <g id="그룹_8" data-name="그룹 8" transform="translate(2540.931 2548.376)">
        <path id="패스_6" data-name="패스 6" d="M2609.256,2585.077a.789.789,0,1,1-.789-.789A.789.789,0,0,1,2609.256,2585.077Z" transform="translate(-2607.677 -2584.288)" fill="#999"/>
      </g>
      <g id="그룹_9" data-name="그룹 9" transform="translate(2534.43 2551.37)">
        <path id="패스_7" data-name="패스 7" d="M2557.5,2607.856a.789.789,0,1,1-.789-.789A.789.789,0,0,1,2557.5,2607.856Z" transform="translate(-2555.923 -2607.067)" fill="#999"/>
      </g>
      <g id="그룹_10" data-name="그룹 10" transform="translate(2537.743 2551.37)">
        <path id="패스_8" data-name="패스 8" d="M2583.879,2607.856a.789.789,0,1,1-.789-.789A.789.789,0,0,1,2583.879,2607.856Z" transform="translate(-2582.3 -2607.067)" fill="#999"/>
      </g>
      <g id="그룹_11" data-name="그룹 11" transform="translate(2540.931 2551.37)">
        <path id="패스_9" data-name="패스 9" d="M2609.256,2607.856a.789.789,0,1,1-.789-.789A.789.789,0,0,1,2609.256,2607.856Z" transform="translate(-2607.677 -2607.067)" fill="#999"/>
      </g>
      <g id="그룹_12" data-name="그룹 12" transform="translate(2534.43 2554.266)">
        <path id="패스_10" data-name="패스 10" d="M2557.5,2629.9a.789.789,0,1,1-.789-.789A.789.789,0,0,1,2557.5,2629.9Z" transform="translate(-2555.923 -2629.106)" fill="#999"/>
      </g>
      <g id="그룹_13" data-name="그룹 13" transform="translate(2537.743 2554.266)">
        <path id="패스_11" data-name="패스 11" d="M2583.879,2629.9a.789.789,0,1,1-.789-.789A.789.789,0,0,1,2583.879,2629.9Z" transform="translate(-2582.3 -2629.106)" fill="#999"/>
      </g>
      <g id="그룹_14" data-name="그룹 14" transform="translate(2540.931 2554.266)">
        <path id="패스_12" data-name="패스 12" d="M2609.256,2629.9a.789.789,0,1,1-.789-.789A.789.789,0,0,1,2609.256,2629.9Z" transform="translate(-2607.677 -2629.106)" fill="#999"/>
      </g>
      <path id="패스_13" data-name="패스 13" d="M2559.634,2544.677a.524.524,0,0,1-.524.524h0a.524.524,0,0,1-.524-.524v-1.211a.524.524,0,0,1,.524-.524h0a.524.524,0,0,1,.524.524Z" transform="translate(-23.84)" fill="#999"/>
      <path id="패스_14" data-name="패스 14" d="M2612.393,2544.677a.524.524,0,0,1-.524.524h0a.524.524,0,0,1-.524-.524v-1.211a.524.524,0,0,1,.524-.524h0a.524.524,0,0,1,.524.524Z" transform="translate(-70.006)" fill="#999"/>
    </g>
  </g>
</svg>
