<svg id="calendar_after" xmlns="http://www.w3.org/2000/svg" width="10" height="12" viewBox="0 0 10 12">
  <path id="패스_15" data-name="패스 15" d="M6022.811,10806.913l-4.588-5.2a.622.622,0,0,0-.955,0l-.064.075a.836.836,0,0,0,0,1.08l4.081,4.622-4.081,4.622a.838.838,0,0,0,0,1.081l.064.071a.619.619,0,0,0,.955,0l4.588-5.2a.958.958,0,0,0,0-1.158Z" transform="translate(-6013.006 -10801.492)" fill="#fff"/>
  <path id="패스_16" data-name="패스 16" d="M6022.811,10806.913l-4.588-5.2a.622.622,0,0,0-.955,0l-.064.075a.836.836,0,0,0,0,1.08l4.081,4.622-4.081,4.622a.838.838,0,0,0,0,1.081l.064.071a.619.619,0,0,0,.955,0l4.588-5.2a.958.958,0,0,0,0-1.158Z" transform="translate(-6017.006 -10801.492)" fill="#fff"/>
</svg>
